<?xml version="1.0" encoding="UTF-8" standalone="no" ?>
<!DOCTYPE svg PUBLIC "-//W3C//DTD SVG 1.1//EN" "http://www.w3.org/Graphics/SVG/1.1/DTD/svg11.dtd">
<svg xmlns="http://www.w3.org/2000/svg" xmlns:xlink="http://www.w3.org/1999/xlink" version="1.1" width="1280" height="1024" viewBox="0 0 1280 1024" xml:space="preserve">
<desc>Created with Fabric.js 3.6.3</desc>
<defs>
</defs>
<g transform="matrix(1.9692780337941629 0 0 1.9692780337941629 640.0153846153846 512.012312418764)" id="background-logo"  >
<rect style="stroke: none; stroke-width: 1; stroke-dasharray: none; stroke-linecap: butt; stroke-dashoffset: 0; stroke-linejoin: miter; stroke-miterlimit: 4; fill: rgb(255,255,255); fill-rule: nonzero; opacity: 1;"  paint-order="stroke"  x="-325" y="-260" rx="0" ry="0" width="650" height="520" />
</g>
<g transform="matrix(2.0653778477615985 0 0 2.0653778477615985 640.0153846153846 357.5769650214813)" id="logo-logo"  >
<g style=""  paint-order="stroke"   >
		<g transform="matrix(1.848 0 0 -1.848 -0.017475999999987835 -52.248091999999986)"  >
<path style="stroke: none; stroke-width: 1; stroke-dasharray: none; stroke-linecap: butt; stroke-dashoffset: 0; stroke-linejoin: miter; stroke-miterlimit: 4; fill: rgb(65,65,66); fill-rule: nonzero; opacity: 1;"  paint-order="stroke"  transform=" translate(-7.995000000000001, 0.13700000000000045)" d="m 0 0 l -6.125 7.171 l 29.281 4.702 V 8.387 L 15.991 0 Z M 23.156 29.64 V 28.341 L -7.165 23.581 V 29.64 Z M -7.165 13.517 L 23.156 18.32 V 15.557 L -7.165 10.688 Z m 0 6.379 l 30.321 4.761 V 21.7 L 23.063 21.99 L -7.165 17.201 Z M 17.317 -2.875 L 26.031 7.327 V 32.516 H -10.041 V 7.327 l 8.715 -10.202 h 7.884 v -10.027 l 0.003 -1.432 l 1.435 -0.006 c 4.294 0 7.787 -3.493 7.787 -7.787 c 0 -4.293 -3.493 -7.787 -7.787 -7.787 c -4.294 0 -7.788 3.494 -7.788 7.787 h -2.875 c 0 -5.879 4.783 -10.663 10.663 -10.663 c 5.879 0 10.662 4.784 10.662 10.663 c 0 5.391 -4.025 9.849 -9.225 10.554 v 8.698 z" stroke-linecap="round" />
</g>
		<g transform="matrix(1.848 0 0 -1.848 -40.95247599999999 24.118908000000033)"  >
<path style="stroke: none; stroke-width: 1; stroke-dasharray: none; stroke-linecap: butt; stroke-dashoffset: 0; stroke-linejoin: miter; stroke-miterlimit: 4; fill: rgb(65,65,66); fill-rule: nonzero; opacity: 1;"  paint-order="stroke"  transform=" translate(-8.750499999999999, -15.495)" d="m 0 0 h -3.588 l 23.236 30.99 l 1.441 -2.872 z" stroke-linecap="round" />
</g>
		<g transform="matrix(1.848 0 0 -1.848 40.595523999999955 24.118908000000033)"  >
<path style="stroke: none; stroke-width: 1; stroke-dasharray: none; stroke-linecap: butt; stroke-dashoffset: 0; stroke-linejoin: miter; stroke-miterlimit: 4; fill: rgb(65,65,66); fill-rule: nonzero; opacity: 1;"  paint-order="stroke"  transform=" translate(8.773499999999999, -15.495)" d="M 0 0 L -21.191 28.245 L -19.648 30.99 L 3.644 0 Z" stroke-linecap="round" />
</g>
		<g transform="matrix(1.848 0 0 -1.848 99.43752400000005 83.78790800000002)"  >
<path style="stroke: none; stroke-width: 1; stroke-dasharray: none; stroke-linecap: butt; stroke-dashoffset: 0; stroke-linejoin: miter; stroke-miterlimit: 4; fill: rgb(65,65,66); fill-rule: nonzero; opacity: 1;"  paint-order="stroke"  transform=" translate(2.6529999999999996, 10.661)" d="m 0 0 v 3.149 c 0 0.223 -0.18 0.396 -0.396 0.396 h -3.156 c -0.216 0 -0.395 -0.173 -0.395 -0.396 V 0 c 0 -0.223 0.179 -0.396 0.395 -0.396 h 3.156 C -0.18 -0.396 0 -0.223 0 0 m 0 -5.722 v 3.156 c 0 0.215 -0.18 0.388 -0.396 0.388 h -3.156 c -0.216 0 -0.395 -0.173 -0.395 -0.388 v -3.156 c 0 -0.223 0.179 -0.395 0.395 -0.395 h 3.156 C -0.18 -6.117 0 -5.945 0 -5.722 m 0 -5.752 v 3.157 c 0 0.215 -0.18 0.388 -0.396 0.388 h -3.156 c -0.216 0 -0.395 -0.173 -0.395 -0.388 v -3.157 c 0 -0.222 0.179 -0.394 0.395 -0.394 h 3.156 c 0.216 0 0.396 0.172 0.396 0.394 m 0 -6.469 v 3.156 c 0 0.216 -0.18 0.388 -0.396 0.388 h -3.156 c -0.216 0 -0.395 -0.172 -0.395 -0.388 v -3.156 c 0 -0.223 0.179 -0.396 0.395 -0.396 h 3.156 c 0.216 0 0.396 0.173 0.396 0.396 m 0 -6.47 v 3.155 c 0 0.216 -0.18 0.389 -0.396 0.389 h -3.156 c -0.216 0 -0.395 -0.173 -0.395 -0.389 v -3.155 c 0 -0.224 0.179 -0.396 0.395 -0.396 h 3.156 c 0.216 0 0.396 0.172 0.396 0.396 M 1.495 4.925 v -31.172 h -8.296 v 1.438 c 0.215 0 0.388 0.172 0.388 0.396 v 3.155 c 0 0.216 -0.173 0.389 -0.388 0.389 v 0.884 h 1.502 v 18.641 h -1.502 v 0.948 c 0.215 0 0.388 0.173 0.388 0.396 v 3.149 c 0 0.223 -0.173 0.396 -0.388 0.396 v 1.38 z" stroke-linecap="round" />
</g>
		<g transform="matrix(1.848 0 0 -1.848 -7.682476000000008 83.78790800000002)"  >
<path style="stroke: none; stroke-width: 1; stroke-dasharray: none; stroke-linecap: butt; stroke-dashoffset: 0; stroke-linejoin: miter; stroke-miterlimit: 4; fill: rgb(65,65,66); fill-rule: nonzero; opacity: 1;"  paint-order="stroke"  transform=" translate(-48.357000000000006, 10.661)" d="m 0 0 v 3.149 c 0 0.223 -0.18 0.396 -0.396 0.396 h -3.155 c -0.216 0 -0.396 -0.173 -0.396 -0.396 V 0 c 0 -0.223 0.18 -0.396 0.396 -0.396 h 3.155 C -0.18 -0.396 0 -0.223 0 0 m 0 -5.722 v 3.156 c 0 0.215 -0.18 0.388 -0.396 0.388 h -3.155 c -0.216 0 -0.396 -0.173 -0.396 -0.388 v -3.156 c 0 -0.223 0.18 -0.395 0.396 -0.395 h 3.155 C -0.18 -6.117 0 -5.945 0 -5.722 m 0 -5.752 v 3.157 c 0 0.215 -0.18 0.388 -0.396 0.388 h -3.155 c -0.216 0 -0.396 -0.173 -0.396 -0.388 v -3.157 c 0 -0.222 0.18 -0.394 0.396 -0.394 h 3.155 c 0.216 0 0.396 0.172 0.396 0.394 m 0 -6.469 v 3.156 c 0 0.216 -0.18 0.388 -0.396 0.388 h -3.155 c -0.216 0 -0.396 -0.172 -0.396 -0.388 v -3.156 c 0 -0.223 0.18 -0.396 0.396 -0.396 h 3.155 c 0.216 0 0.396 0.173 0.396 0.396 m 0 -6.47 v 3.155 c 0 0.216 -0.18 0.389 -0.396 0.389 h -3.155 c -0.216 0 -0.396 -0.173 -0.396 -0.389 v -3.155 c 0 -0.224 0.18 -0.396 0.396 -0.396 h 3.155 c 0.216 0 0.396 0.172 0.396 0.396 M 6.405 0 v 3.149 c 0 0.223 -0.172 0.396 -0.395 0.396 H 2.861 C 2.638 3.545 2.466 3.372 2.466 3.149 V 0 c 0 -0.223 0.172 -0.396 0.395 -0.396 H 6.01 c 0.223 0 0.395 0.173 0.395 0.396 m 0 -24.413 v 3.155 c 0 0.216 -0.172 0.389 -0.395 0.389 H 2.861 c -0.223 0 -0.395 -0.173 -0.395 -0.389 v -3.155 c 0 -0.224 0.172 -0.396 0.395 -0.396 H 6.01 c 0.223 0 0.395 0.172 0.395 0.396 M 12.818 0 v 3.149 c 0 0.223 -0.18 0.396 -0.396 0.396 H 9.267 C 9.051 3.545 8.871 3.372 8.871 3.149 V 0 c 0 -0.223 0.18 -0.396 0.396 -0.396 h 3.155 c 0.216 0 0.396 0.173 0.396 0.396 m 0 -24.413 v 3.155 c 0 0.216 -0.18 0.389 -0.396 0.389 H 9.267 c -0.216 0 -0.396 -0.173 -0.396 -0.389 v -3.155 c 0 -0.224 0.18 -0.396 0.396 -0.396 h 3.155 c 0.216 0 0.396 0.172 0.396 0.396 M 19.223 0 v 3.149 c 0 0.223 -0.172 0.396 -0.395 0.396 h -3.149 c -0.223 0 -0.395 -0.173 -0.395 -0.396 V 0 c 0 -0.223 0.172 -0.396 0.395 -0.396 h 3.149 c 0.223 0 0.395 0.173 0.395 0.396 m 0 -24.413 v 3.155 c 0 0.216 -0.172 0.389 -0.395 0.389 h -3.149 c -0.223 0 -0.395 -0.173 -0.395 -0.389 v -3.155 c 0 -0.224 0.172 -0.396 0.395 -0.396 h 3.149 c 0.223 0 0.395 0.172 0.395 0.396 M 25.636 0 v 3.149 c 0 0.223 -0.18 0.396 -0.395 0.396 h -3.157 c -0.215 0 -0.395 -0.173 -0.395 -0.396 V 0 c 0 -0.223 0.18 -0.396 0.395 -0.396 h 3.157 c 0.215 0 0.395 0.173 0.395 0.396 m 0 -24.413 v 3.155 c 0 0.216 -0.18 0.389 -0.395 0.389 h -3.157 c -0.215 0 -0.395 -0.173 -0.395 -0.389 v -3.155 c 0 -0.224 0.18 -0.396 0.395 -0.396 h 3.157 c 0.215 0 0.395 0.172 0.395 0.396 M 32.041 0 v 3.149 c 0 0.223 -0.172 0.396 -0.388 0.396 h -3.156 c -0.223 0 -0.395 -0.173 -0.395 -0.396 V 0 c 0 -0.223 0.172 -0.396 0.395 -0.396 h 3.156 c 0.216 0 0.388 0.173 0.388 0.396 m 0 -24.413 v 3.155 c 0 0.216 -0.172 0.389 -0.395 0.389 h -3.149 c -0.216 0 -0.395 -0.173 -0.395 -0.389 v -3.155 c 0 -0.224 0.179 -0.396 0.395 -0.396 h 3.149 c 0.223 0 0.395 0.172 0.395 0.396 M 38.454 0 v 3.149 c 0 0.223 -0.18 0.396 -0.395 0.396 h -3.157 c -0.215 0 -0.395 -0.173 -0.395 -0.396 V 0 c 0 -0.223 0.18 -0.396 0.395 -0.396 h 3.157 c 0.215 0 0.395 0.173 0.395 0.396 m 0 -24.413 v 3.155 c 0 0.216 -0.18 0.389 -0.395 0.389 h -3.157 c -0.215 0 -0.395 -0.173 -0.395 -0.389 v -3.155 c 0 -0.224 0.18 -0.396 0.395 -0.396 h 3.157 c 0.215 0 0.395 0.172 0.395 0.396 M 44.866 0 v 3.149 c 0 0.223 -0.179 0.396 -0.395 0.396 H 41.315 C 41.1 3.545 40.919 3.372 40.919 3.149 V 0 c 0 -0.223 0.181 -0.396 0.396 -0.396 h 3.156 c 0.216 0 0.395 0.173 0.395 0.396 m 0 -24.413 v 3.155 c 0 0.216 -0.179 0.389 -0.395 0.389 h -3.156 c -0.215 0 -0.396 -0.173 -0.396 -0.389 v -3.155 c 0 -0.224 0.181 -0.396 0.396 -0.396 h 3.156 c 0.216 0 0.395 0.172 0.395 0.396 M 51.272 0 v 3.149 c 0 0.223 -0.18 0.396 -0.396 0.396 H 47.72 c -0.215 0 -0.388 -0.173 -0.388 -0.396 V 0 c 0 -0.223 0.173 -0.396 0.388 -0.396 h 3.156 c 0.216 0 0.396 0.173 0.396 0.396 m 0 -24.413 v 3.155 c 0 0.216 -0.18 0.389 -0.396 0.389 H 47.72 c -0.215 0 -0.388 -0.173 -0.388 -0.389 v -3.155 c 0 -0.224 0.173 -0.396 0.388 -0.396 h 3.156 c 0.216 0 0.396 0.172 0.396 0.396 M 57.684 0 v 3.149 c 0 0.223 -0.18 0.396 -0.395 0.396 h -3.156 c -0.216 0 -0.395 -0.173 -0.395 -0.396 V 0 c 0 -0.223 0.179 -0.396 0.395 -0.396 h 3.156 c 0.215 0 0.395 0.173 0.395 0.396 m 0 -24.413 v 3.155 c 0 0.216 -0.18 0.389 -0.395 0.389 h -3.156 c -0.216 0 -0.395 -0.173 -0.395 -0.389 v -3.155 c 0 -0.224 0.179 -0.396 0.395 -0.396 h 3.156 c 0.215 0 0.395 0.172 0.395 0.396 M 64.089 0 v 3.149 c 0 0.223 -0.172 0.396 -0.394 0.396 h -3.15 C 60.323 3.545 60.15 3.372 60.15 3.149 V 0 c 0 -0.223 0.173 -0.396 0.395 -0.396 h 3.15 c 0.222 0 0.394 0.173 0.394 0.396 m 0 -24.413 v 3.155 c 0 0.216 -0.172 0.389 -0.394 0.389 h -3.156 c -0.216 0 -0.389 -0.173 -0.389 -0.389 v -3.155 c 0 -0.224 0.173 -0.396 0.389 -0.396 h 3.156 c 0.222 0 0.394 0.172 0.394 0.396 M 70.502 0 v 3.149 c 0 0.223 -0.179 0.396 -0.395 0.396 h -3.156 c -0.216 0 -0.396 -0.173 -0.396 -0.396 V 0 c 0 -0.223 0.18 -0.396 0.396 -0.396 h 3.156 c 0.216 0 0.395 0.173 0.395 0.396 m 0 -24.413 v 3.155 c 0 0.216 -0.179 0.389 -0.395 0.389 h -3.156 c -0.216 0 -0.396 -0.173 -0.396 -0.389 v -3.155 c 0 -0.224 0.18 -0.396 0.396 -0.396 h 3.156 c 0.216 0 0.395 0.172 0.395 0.396 M 76.908 0 v 3.149 c 0 0.223 -0.173 0.396 -0.396 0.396 h -3.148 c -0.223 0 -0.396 -0.173 -0.396 -0.396 V 0 c 0 -0.223 0.173 -0.396 0.396 -0.396 h 3.148 c 0.223 0 0.396 0.173 0.396 0.396 m 0 -24.413 v 3.155 c 0 0.216 -0.173 0.389 -0.396 0.389 h -3.156 c -0.215 0 -0.388 -0.173 -0.388 -0.389 v -3.155 c 0 -0.224 0.173 -0.396 0.388 -0.396 h 3.156 c 0.223 0 0.396 0.172 0.396 0.396 M 83.32 0 v 3.149 c 0 0.223 -0.18 0.396 -0.395 0.396 h -3.156 c -0.216 0 -0.395 -0.173 -0.395 -0.396 V 0 c 0 -0.223 0.179 -0.396 0.395 -0.396 h 3.156 c 0.215 0 0.395 0.173 0.395 0.396 m 0 -24.413 v 3.155 c 0 0.216 -0.18 0.389 -0.395 0.389 h -3.156 c -0.216 0 -0.395 -0.173 -0.395 -0.389 v -3.155 c 0 -0.224 0.179 -0.396 0.395 -0.396 h 3.156 c 0.215 0 0.395 0.172 0.395 0.396 M 89.726 0 v 3.149 c 0 0.223 -0.173 0.396 -0.389 0.396 h -3.156 c -0.223 0 -0.395 -0.173 -0.395 -0.396 V 0 c 0 -0.223 0.172 -0.396 0.395 -0.396 h 3.156 c 0.216 0 0.389 0.173 0.389 0.396 m 0 -24.413 v 3.155 c 0 0.216 -0.173 0.389 -0.389 0.389 h -3.156 c -0.223 0 -0.395 -0.173 -0.395 -0.389 v -3.155 c 0 -0.224 0.172 -0.396 0.395 -0.396 h 3.156 c 0.216 0 0.389 0.172 0.389 0.396 M 96.138 0 v 3.149 c 0 0.223 -0.18 0.396 -0.395 0.396 h -3.157 c -0.214 0 -0.394 -0.173 -0.394 -0.396 V 0 c 0 -0.223 0.18 -0.396 0.394 -0.396 h 3.157 c 0.215 0 0.395 0.173 0.395 0.396 m 0 -24.413 v 3.155 c 0 0.216 -0.18 0.389 -0.395 0.389 h -3.157 c -0.214 0 -0.394 -0.173 -0.394 -0.389 v -3.155 c 0 -0.224 0.18 -0.396 0.394 -0.396 h 3.157 c 0.215 0 0.395 0.172 0.395 0.396 m 6.018 -0.396 v -1.438 H -5.442 V 4.925 H 102.156 V 3.545 H 99 c -0.216 0 -0.396 -0.173 -0.396 -0.396 V 0 c 0 -0.223 0.18 -0.396 0.396 -0.396 h 3.156 V -1.344 H 82.81 H 78.259 H 54.78 H 50.229 H 27.469 H 22.918 H 1.352 v -18.641 h 21.566 h 4.551 h 22.76 h 4.551 h 23.479 h 4.551 h 19.346 v -0.884 H 99 c -0.216 0 -0.396 -0.173 -0.396 -0.389 v -3.155 c 0 -0.224 0.18 -0.396 0.396 -0.396 z" stroke-linecap="round" />
</g>
		<g transform="matrix(1.848 0 0 -1.848 51.800523999999996 83.79490800000002)"  >
<path style="stroke: none; stroke-width: 1; stroke-dasharray: none; stroke-linecap: butt; stroke-dashoffset: 0; stroke-linejoin: miter; stroke-miterlimit: 4; fill: rgb(65,65,66); fill-rule: nonzero; opacity: 1;"  paint-order="stroke"  transform=" translate(-190.5315, -95.075)" d="m 192.807 85.754 h -4.551 v 18.642 h 4.551 z" stroke-linecap="round" />
</g>
		<g transform="matrix(1.848 0 0 -1.848 -0.01647600000001148 83.79490800000002)"  >
<path style="stroke: none; stroke-width: 1; stroke-dasharray: none; stroke-linecap: butt; stroke-dashoffset: 0; stroke-linejoin: miter; stroke-miterlimit: 4; fill: rgb(65,65,66); fill-rule: nonzero; opacity: 1;"  paint-order="stroke"  transform=" translate(-162.501, -95.075)" d="m 164.776 85.754 h -4.55 v 18.642 h 4.55 z" stroke-linecap="round" />
</g>
		<g transform="matrix(1.848 0 0 -1.848 -50.502476 83.79490800000002)"  >
<path style="stroke: none; stroke-width: 1; stroke-dasharray: none; stroke-linecap: butt; stroke-dashoffset: 0; stroke-linejoin: miter; stroke-miterlimit: 4; fill: rgb(65,65,66); fill-rule: nonzero; opacity: 1;"  paint-order="stroke"  transform=" translate(-135.19050000000001, -95.075)" d="m 137.466 85.754 h -4.551 v 18.642 h 4.551 z" stroke-linecap="round" />
</g>
</g>
</g>
<g transform="matrix(1.9692780337941629 0 0 1.9692780337941629 645.9434115091058 649.4559040006559)" id="text-logo-path"  >
<path style="stroke: rgb(65,65,67); stroke-width: 0; stroke-dasharray: none; stroke-linecap: butt; stroke-dashoffset: 0; stroke-linejoin: miter; stroke-miterlimit: 4; fill: rgb(65,65,66); fill-rule: nonzero; opacity: 1;"  paint-order="stroke"  transform=" translate(-149.12499999999997, 12.895)" d="M 2.92 -19.48 L 2.92 -19.48 Q 2.92 -20.71 3.42 -21.63 Q 3.93 -22.54 4.84 -23.19 Q 5.76 -23.83 7.04 -24.25 Q 8.32 -24.67 9.86 -24.9 Q 11.4 -25.14 13.15 -25.22 Q 14.91 -25.31 16.79 -25.31 L 16.79 -25.31 Q 19.34 -25.31 22.13 -25.11 Q 24.92 -24.9 27.95 -24.36 L 27.95 -24.36 Q 28.65 -24.21 28.94 -23.83 Q 29.22 -23.45 29.22 -22.98 L 29.22 -22.98 Q 29.22 -22.69 29.09 -22.41 Q 28.96 -22.13 28.74 -21.9 Q 28.52 -21.67 28.23 -21.53 Q 27.93 -21.39 27.61 -21.39 L 27.61 -21.39 Q 26.48 -21.39 25.26 -21.5 Q 24.04 -21.62 22.71 -21.77 Q 21.39 -21.91 19.98 -22.06 Q 18.57 -22.21 17.08 -22.28 L 17.08 -22.28 Q 16.82 -20.64 16.41 -18.75 Q 16 -16.86 15.51 -14.89 Q 15.01 -12.92 14.48 -10.96 Q 13.95 -9.01 13.45 -7.23 Q 12.95 -5.45 12.52 -3.94 Q 12.08 -2.43 11.81 -1.35 L 11.81 -1.35 Q 11.69 -0.85 11.45 -0.43 Q 11.21 -0.01 10.91 0.29 Q 10.61 0.6 10.28 0.77 Q 9.96 0.94 9.68 0.94 L 9.68 0.94 Q 8.85 0.94 8.31 0.54 Q 7.76 0.15 7.76 -0.73 L 7.76 -0.73 Q 7.76 -1.01 7.85 -1.35 L 7.85 -1.35 Q 8.04 -2.68 8.36 -3.97 Q 8.67 -5.26 9.1 -6.66 Q 9.52 -8.06 10.06 -9.62 Q 10.61 -11.19 11.26 -13.07 Q 11.92 -14.96 12.69 -17.23 Q 13.46 -19.5 14.36 -22.28 L 14.36 -22.28 Q 13.58 -22.22 12.78 -22.15 Q 11.98 -22.08 11.23 -21.95 Q 10.47 -21.83 9.82 -21.64 Q 9.17 -21.45 8.68 -21.15 Q 8.19 -20.86 7.9 -20.45 Q 7.62 -20.04 7.62 -19.48 L 7.62 -19.48 Q 7.62 -19.45 7.58 -19.16 Q 7.54 -18.87 7.32 -18.52 Q 7.1 -18.18 6.63 -17.89 Q 6.15 -17.61 5.27 -17.61 L 5.27 -17.61 Q 4.39 -17.61 3.91 -17.9 Q 3.43 -18.19 3.21 -18.54 L 3.21 -18.54 Q 2.94 -18.96 2.92 -19.48 Z M 24.21 -3.27 L 24.21 -3.27 Q 24.21 -4.25 24.24 -5.84 Q 24.26 -7.43 24.38 -9.36 Q 24.49 -11.29 24.71 -13.43 Q 24.93 -15.57 25.33 -17.66 Q 25.74 -19.75 26.35 -21.64 Q 26.95 -23.54 27.82 -24.98 Q 28.7 -26.43 29.87 -27.28 Q 31.04 -28.13 32.56 -28.13 L 32.56 -28.13 Q 33.35 -28.13 33.86 -27.89 Q 34.37 -27.66 34.67 -27.23 Q 34.97 -26.81 35.08 -26.21 Q 35.2 -25.62 35.2 -24.89 L 35.2 -24.89 Q 35.2 -23.8 34.89 -22.49 Q 34.58 -21.17 34.08 -19.75 Q 33.57 -18.33 32.93 -16.87 Q 32.29 -15.41 31.61 -14.04 Q 30.94 -12.67 30.29 -11.46 Q 29.63 -10.24 29.14 -9.32 L 29.14 -9.32 L 29.43 -9.11 Q 30.03 -9.9 30.78 -10.81 Q 31.52 -11.72 32.33 -12.5 Q 33.13 -13.29 33.93 -13.81 Q 34.73 -14.33 35.43 -14.33 L 35.43 -14.33 Q 35.61 -14.33 35.83 -14.26 Q 36.05 -14.19 36.25 -14.02 Q 36.45 -13.84 36.58 -13.53 Q 36.71 -13.21 36.71 -12.71 L 36.71 -12.71 Q 36.71 -11.72 36.43 -10.77 Q 36.15 -9.83 35.82 -8.88 Q 35.49 -7.94 35.22 -6.96 Q 34.95 -5.98 34.95 -4.91 L 34.95 -4.91 Q 34.95 -4.32 35.13 -3.97 Q 35.3 -3.62 35.58 -3.62 L 35.58 -3.62 Q 35.93 -3.62 36.33 -3.76 Q 36.72 -3.91 37.12 -4.15 Q 37.51 -4.38 37.9 -4.68 Q 38.28 -4.98 38.61 -5.3 L 38.61 -5.3 Q 39.42 -6.05 40.2 -7 L 40.2 -7 L 40.44 -3.11 Q 40.18 -2.9 39.78 -2.59 Q 39.38 -2.29 38.88 -1.94 Q 38.39 -1.6 37.82 -1.25 Q 37.25 -0.89 36.67 -0.62 Q 36.09 -0.35 35.52 -0.18 Q 34.94 0 34.41 0 L 34.41 0 Q 33.6 0 33.01 -0.43 Q 32.42 -0.86 32.04 -1.53 Q 31.66 -2.2 31.46 -2.99 Q 31.27 -3.78 31.27 -4.48 L 31.27 -4.48 Q 31.27 -4.95 31.4 -5.53 Q 31.52 -6.11 31.71 -6.69 Q 31.89 -7.28 32.12 -7.84 Q 32.34 -8.39 32.54 -8.83 Q 32.74 -9.27 32.89 -9.55 Q 33.03 -9.83 33.08 -9.87 L 33.08 -9.87 L 32.77 -9.92 Q 32.52 -9.76 31.93 -9.1 Q 31.33 -8.44 30.59 -7.43 Q 29.84 -6.43 29.04 -5.18 Q 28.24 -3.93 27.6 -2.59 L 27.6 -2.59 Q 27.28 -1.93 27.07 -1.44 Q 26.87 -0.95 26.67 -0.64 Q 26.47 -0.32 26.24 -0.16 Q 26 0 25.63 0 L 25.63 0 Q 25.15 0 24.87 -0.28 Q 24.59 -0.56 24.45 -1.02 Q 24.3 -1.48 24.26 -2.07 Q 24.21 -2.65 24.21 -3.27 Z M 27.42 -10.4 L 27.42 -10.4 Q 27.82 -11.32 28.29 -12.41 Q 28.75 -13.49 29.21 -14.55 Q 29.66 -15.62 30.07 -16.56 Q 30.47 -17.5 30.73 -18.16 L 30.73 -18.16 Q 31.6 -20.41 31.98 -21.94 Q 32.37 -23.48 32.37 -24.21 L 32.37 -24.21 Q 32.37 -25.33 32.08 -25.33 L 32.08 -25.33 Q 31.7 -25.33 30.95 -24.08 Q 30.21 -22.84 29.19 -20.46 L 29.19 -20.46 Q 28.95 -19.66 28.73 -18.79 Q 28.52 -17.93 28.35 -17.07 Q 28.18 -16.22 28.04 -15.39 Q 27.91 -14.56 27.8 -13.81 L 27.8 -13.81 Q 27.55 -12.07 27.42 -10.4 Z M 38.83 -6.11 L 38.83 -6.11 Q 38.83 -6.93 38.99 -7.84 Q 39.16 -8.76 39.48 -9.64 Q 39.81 -10.52 40.31 -11.32 Q 40.81 -12.11 41.48 -12.72 Q 42.14 -13.33 42.97 -13.69 Q 43.8 -14.05 44.81 -14.05 L 44.81 -14.05 Q 45.63 -14.05 46.33 -13.78 Q 47.04 -13.52 47.56 -13.04 Q 48.08 -12.57 48.37 -11.89 Q 48.66 -11.22 48.66 -10.39 L 48.66 -10.39 Q 48.66 -9.48 48.22 -8.57 Q 47.77 -7.66 46.98 -6.86 Q 46.19 -6.05 45.1 -5.42 Q 44 -4.79 42.73 -4.44 L 42.73 -4.44 Q 42.95 -4.04 43.16 -3.78 Q 43.37 -3.52 43.59 -3.37 Q 43.81 -3.22 44.06 -3.16 Q 44.3 -3.11 44.58 -3.11 L 44.58 -3.11 Q 45.45 -3.11 46.43 -3.46 Q 47.4 -3.81 48.33 -4.34 Q 49.25 -4.86 50.07 -5.49 Q 50.89 -6.11 51.46 -6.67 L 51.46 -6.67 L 53.35 -4.7 Q 52.06 -3.37 50.61 -2.34 L 50.61 -2.34 Q 49.98 -1.9 49.26 -1.48 Q 48.53 -1.05 47.73 -0.73 Q 46.93 -0.4 46.08 -0.2 Q 45.22 0 44.34 0 L 44.34 0 Q 42.96 0 41.93 -0.5 Q 40.9 -1 40.21 -1.84 Q 39.52 -2.68 39.18 -3.79 Q 38.83 -4.89 38.83 -6.11 Z M 42.39 -6.88 L 42.39 -6.88 Q 42.92 -6.88 43.54 -7.16 Q 44.17 -7.43 44.7 -7.85 Q 45.23 -8.28 45.6 -8.77 Q 45.97 -9.27 45.97 -9.74 L 45.97 -9.74 Q 45.97 -10.4 45.73 -10.83 Q 45.48 -11.25 45.13 -11.25 L 45.13 -11.25 Q 44.5 -11.25 44.06 -11.02 Q 43.61 -10.78 43.31 -10.41 Q 43.01 -10.03 42.82 -9.56 Q 42.64 -9.08 42.55 -8.6 Q 42.45 -8.12 42.42 -7.66 Q 42.39 -7.21 42.39 -6.88 Z M 58.43 -8.61 L 58.43 -8.61 Q 58.43 -10.36 58.66 -12.14 Q 58.89 -13.93 59.24 -15.62 Q 59.59 -17.31 60.04 -18.83 Q 60.48 -20.35 60.92 -21.56 L 60.92 -21.56 Q 61.2 -22.41 61.49 -22.88 Q 61.77 -23.35 62.05 -23.58 Q 62.33 -23.8 62.61 -23.85 Q 62.89 -23.91 63.18 -23.91 L 63.18 -23.91 Q 63.74 -23.91 64.17 -23.85 Q 64.6 -23.8 64.89 -23.66 Q 65.19 -23.51 65.33 -23.24 Q 65.48 -22.97 65.48 -22.51 L 65.48 -22.51 L 65.48 -22.4 Q 65.45 -22.22 65.43 -22.02 Q 65.42 -21.81 65.35 -21.56 L 65.35 -21.56 Q 65.17 -21.02 64.87 -20.1 Q 64.57 -19.19 64.22 -18.01 Q 63.87 -16.83 63.5 -15.47 Q 63.13 -14.11 62.84 -12.68 Q 62.55 -11.25 62.37 -9.84 Q 62.18 -8.42 62.18 -7.15 L 62.18 -7.15 Q 62.18 -5.83 62.4 -4.69 Q 62.62 -3.56 63.14 -2.72 Q 63.66 -1.89 64.5 -1.41 Q 65.33 -0.94 66.56 -0.94 L 66.56 -0.94 Q 67.51 -0.94 68.37 -1.46 Q 69.23 -1.98 69.98 -2.92 Q 70.74 -3.87 71.4 -5.19 Q 72.07 -6.5 72.63 -8.09 Q 73.18 -9.67 73.63 -11.46 Q 74.08 -13.26 74.41 -15.17 Q 74.75 -17.08 74.98 -19.06 Q 75.21 -21.04 75.31 -22.97 L 75.31 -22.97 Q 75.35 -23.72 75.59 -24.17 Q 75.82 -24.62 76.18 -24.88 Q 76.54 -25.14 76.98 -25.22 Q 77.43 -25.31 77.87 -25.31 L 77.87 -25.31 Q 78.27 -25.31 78.57 -25.22 Q 78.88 -25.14 79.09 -24.91 Q 79.31 -24.68 79.42 -24.3 Q 79.53 -23.92 79.53 -23.33 L 79.53 -23.33 Q 79.53 -19.28 79.04 -15.79 Q 78.56 -12.3 77.68 -9.46 Q 76.8 -6.61 75.57 -4.4 Q 74.34 -2.2 72.85 -0.7 Q 71.37 0.79 69.65 1.57 Q 67.94 2.34 66.11 2.34 L 66.11 2.34 Q 63.91 2.34 62.43 1.46 Q 60.95 0.57 60.07 -0.94 Q 59.18 -2.45 58.81 -4.43 Q 58.43 -6.42 58.43 -8.61 Z M 78.68 -8.53 L 78.68 -8.53 Q 78.68 -9.83 78.87 -11.36 Q 79.06 -12.89 79.42 -14.52 Q 79.79 -16.14 80.3 -17.78 Q 80.8 -19.42 81.44 -20.93 Q 82.08 -22.44 82.82 -23.75 Q 83.57 -25.06 84.39 -26.04 Q 85.21 -27.01 86.1 -27.57 Q 87 -28.13 87.92 -28.13 L 87.92 -28.13 Q 88.55 -28.13 88.96 -27.84 Q 89.37 -27.55 89.6 -27.08 Q 89.84 -26.62 89.93 -26.02 Q 90.03 -25.43 90.03 -24.81 L 90.03 -24.81 Q 90.03 -23.44 89.71 -22.01 Q 89.4 -20.58 88.86 -19.14 Q 88.33 -17.7 87.63 -16.25 Q 86.92 -14.79 86.16 -13.37 Q 85.4 -11.94 84.63 -10.55 Q 83.86 -9.17 83.19 -7.85 L 83.19 -7.85 Q 83.12 -7.71 83.03 -7.47 Q 82.95 -7.24 82.88 -6.97 Q 82.81 -6.69 82.73 -6.39 Q 82.66 -6.08 82.62 -5.79 L 82.62 -5.79 L 82.62 -5.58 Q 82.62 -5.2 82.7 -4.84 Q 82.78 -4.48 82.9 -4.2 Q 83.01 -3.91 83.14 -3.74 Q 83.28 -3.57 83.39 -3.57 L 83.39 -3.57 Q 83.67 -3.57 84.03 -3.69 Q 84.39 -3.81 84.79 -4.01 Q 85.2 -4.2 85.62 -4.46 Q 86.04 -4.72 86.44 -4.98 L 86.44 -4.98 Q 87.36 -5.6 88.37 -6.4 L 88.37 -6.4 L 89.58 -3.33 Q 88.27 -2.39 87 -1.66 L 87 -1.66 Q 86.44 -1.35 85.85 -1.05 Q 85.25 -0.75 84.65 -0.51 Q 84.05 -0.28 83.48 -0.14 Q 82.91 0 82.41 0 L 82.41 0 Q 81.62 0 80.94 -0.7 Q 80.26 -1.39 79.75 -2.56 Q 79.25 -3.74 78.96 -5.28 Q 78.68 -6.83 78.68 -8.53 Z M 82.43 -11.72 L 82.43 -11.72 Q 83.09 -12.89 83.83 -14.36 Q 84.57 -15.82 85.22 -17.37 Q 85.88 -18.93 86.37 -20.47 Q 86.85 -22.02 86.98 -23.35 L 86.98 -23.35 Q 86.98 -23.77 86.96 -24.07 Q 86.94 -24.38 86.82 -24.38 L 86.82 -24.38 Q 86.4 -24.38 85.91 -23.83 Q 85.42 -23.28 84.92 -22.34 Q 84.43 -21.4 83.99 -20.16 Q 83.54 -18.91 83.19 -17.5 Q 82.84 -16.1 82.63 -14.61 Q 82.43 -13.13 82.43 -11.72 Z M 84.29 -15.19 L 84.29 -15.19 Q 84.29 -15.48 84.57 -15.64 Q 84.86 -15.79 85.31 -15.86 Q 85.75 -15.94 86.28 -15.94 L 86.28 -15.94 Q 86.46 -15.94 86.63 -15.95 L 86.63 -15.95 Q 86.98 -15.95 87.3 -15.94 L 87.3 -15.94 Q 87.8 -15.92 88.19 -15.92 Q 88.58 -15.91 88.73 -15.94 L 88.73 -15.94 Q 89.12 -17.92 89.73 -19.77 Q 90.34 -21.62 91.09 -23.06 Q 91.85 -24.51 92.74 -25.38 Q 93.63 -26.25 94.61 -26.25 L 94.61 -26.25 Q 95.24 -26.25 95.76 -25.9 Q 96.28 -25.55 96.65 -24.96 Q 97.02 -24.38 97.21 -23.59 Q 97.41 -22.81 97.41 -21.96 L 97.41 -21.96 Q 97.41 -21.24 97.21 -20.44 Q 97 -19.64 96.65 -18.82 Q 96.3 -17.99 95.82 -17.14 Q 95.35 -16.29 94.82 -15.45 L 94.82 -15.45 Q 94.95 -15.44 95.26 -15.44 Q 95.57 -15.44 95.97 -15.42 Q 96.37 -15.4 96.84 -15.37 Q 97.31 -15.35 97.75 -15.34 Q 98.19 -15.32 98.57 -15.31 Q 98.95 -15.29 99.2 -15.28 L 99.2 -15.28 Q 99.49 -15.26 99.62 -14.99 Q 99.76 -14.71 99.76 -14.28 L 99.76 -14.28 Q 99.76 -13.77 99.46 -13.45 Q 99.17 -13.13 98.82 -13.13 L 98.82 -13.13 L 93.19 -13.13 Q 92.77 -12.54 92.34 -11.98 Q 91.9 -11.41 91.54 -10.96 L 91.54 -10.96 Q 91.48 -10.05 91.44 -9.17 L 91.44 -9.17 Q 91.42 -8.79 91.41 -8.39 Q 91.39 -7.98 91.38 -7.59 Q 91.36 -7.19 91.35 -6.83 Q 91.35 -6.46 91.35 -6.15 L 91.35 -6.15 Q 91.35 -5.36 91.49 -4.82 Q 91.64 -4.28 91.92 -3.93 Q 92.2 -3.59 92.6 -3.44 Q 93 -3.28 93.5 -3.28 L 93.5 -3.28 Q 93.81 -3.28 94.27 -3.43 Q 94.73 -3.57 95.28 -3.83 Q 95.83 -4.09 96.44 -4.44 Q 97.05 -4.79 97.64 -5.21 Q 98.23 -5.63 98.77 -6.09 Q 99.32 -6.55 99.76 -7.03 L 99.76 -7.03 L 99.76 -3.28 Q 98.35 -2.46 97.25 -1.85 Q 96.15 -1.23 95.3 -0.82 Q 94.44 -0.41 93.77 -0.21 Q 93.11 0 92.56 0 L 92.56 0 Q 91.45 0 90.6 -0.67 Q 89.75 -1.35 89.18 -2.61 Q 88.61 -3.88 88.32 -5.68 Q 88.04 -7.49 88.04 -9.74 L 88.04 -9.74 Q 88.04 -10.62 88.11 -11.62 Q 88.18 -12.61 88.32 -13.59 L 88.32 -13.59 Q 87.88 -13.65 87.63 -13.7 Q 87.39 -13.75 87.12 -13.81 Q 86.85 -13.86 86.43 -13.92 Q 86.02 -13.97 85.22 -14.06 L 85.22 -14.06 Q 84.87 -14.11 84.68 -14.23 Q 84.49 -14.36 84.4 -14.52 Q 84.32 -14.69 84.3 -14.88 Q 84.29 -15.06 84.29 -15.19 Z M 91.52 -15.82 L 91.52 -15.82 Q 91.74 -15.79 91.96 -15.77 Q 92.18 -15.75 92.42 -15.72 L 92.42 -15.72 Q 92.86 -16.46 93.33 -17.34 Q 93.81 -18.21 94.19 -19.05 Q 94.57 -19.89 94.82 -20.63 Q 95.07 -21.36 95.07 -21.83 L 95.07 -21.83 Q 95.07 -21.99 95.05 -22.19 Q 95.02 -22.38 94.95 -22.56 Q 94.88 -22.73 94.72 -22.85 Q 94.57 -22.97 94.29 -22.97 L 94.29 -22.97 Q 93.91 -22.97 93.52 -22.29 Q 93.13 -21.62 92.78 -20.57 Q 92.42 -19.53 92.1 -18.27 Q 91.79 -17.01 91.52 -15.82 Z M 98.83 -2.94 L 98.83 -2.94 Q 98.83 -3.87 99.05 -5.09 Q 99.26 -6.31 99.57 -7.62 Q 99.87 -8.94 100.22 -10.24 Q 100.56 -11.54 100.83 -12.64 L 100.83 -12.64 Q 100.93 -13.02 101.24 -13.29 Q 101.54 -13.56 101.93 -13.73 Q 102.32 -13.9 102.74 -13.98 Q 103.15 -14.06 103.49 -14.06 L 103.49 -14.06 Q 104.11 -14.06 104.33 -13.84 Q 104.55 -13.61 104.55 -13.23 L 104.55 -13.23 Q 104.55 -12.91 104.4 -12.3 Q 104.25 -11.69 104.03 -10.92 Q 103.81 -10.15 103.56 -9.27 Q 103.32 -8.38 103.1 -7.49 Q 102.88 -6.61 102.73 -5.76 Q 102.58 -4.92 102.58 -4.25 L 102.58 -4.25 Q 102.58 -3.59 102.73 -3.2 Q 102.88 -2.81 103.33 -2.81 L 103.33 -2.81 Q 103.86 -2.81 104.5 -3.18 Q 105.15 -3.54 105.81 -4.06 Q 106.46 -4.58 107.09 -5.14 Q 107.72 -5.7 108.21 -6.09 L 108.21 -6.09 L 108.21 -3.12 Q 107.68 -2.64 106.9 -2.09 Q 106.11 -1.54 105.21 -1.08 Q 104.3 -0.62 103.35 -0.31 Q 102.41 0 101.56 0 L 101.56 0 Q 100.8 0 100.28 -0.21 Q 99.76 -0.42 99.43 -0.81 Q 99.11 -1.19 98.97 -1.74 Q 98.83 -2.29 98.83 -2.94 Z M 101.66 -18.18 L 101.66 -18.18 Q 101.66 -18.52 101.81 -18.94 Q 101.95 -19.37 102.28 -19.74 Q 102.61 -20.11 103.16 -20.37 Q 103.71 -20.63 104.53 -20.63 L 104.53 -20.63 Q 105.04 -20.63 105.5 -20.51 Q 105.95 -20.39 106.29 -20.15 Q 106.63 -19.91 106.82 -19.51 Q 107.02 -19.12 107.02 -18.57 L 107.02 -18.57 Q 107.02 -18.08 106.86 -17.61 Q 106.7 -17.14 106.35 -16.77 Q 106 -16.41 105.46 -16.18 Q 104.93 -15.95 104.18 -15.95 L 104.18 -15.95 Q 102.89 -15.95 102.28 -16.56 Q 101.66 -17.17 101.66 -18.18 Z M 106.7 -3.06 L 106.7 -3.06 Q 106.7 -3.66 106.77 -4.48 Q 106.85 -5.3 106.96 -6.21 Q 107.08 -7.12 107.23 -8.06 Q 107.39 -9.01 107.56 -9.87 Q 107.72 -10.74 107.9 -11.46 Q 108.08 -12.17 108.22 -12.63 L 108.22 -12.63 Q 108.37 -13.1 108.5 -13.37 Q 108.63 -13.65 108.8 -13.81 Q 108.97 -13.96 109.2 -14.01 Q 109.44 -14.06 109.8 -14.06 L 109.8 -14.06 Q 110.36 -14.06 110.68 -14.03 Q 110.99 -13.99 111.15 -13.85 Q 111.3 -13.71 111.33 -13.45 Q 111.36 -13.18 111.36 -12.73 L 111.36 -12.73 Q 111.36 -12.48 111.34 -12.16 Q 111.31 -11.84 111.27 -11.47 Q 111.23 -11.1 111.17 -10.72 Q 111.12 -10.33 111.06 -9.96 L 111.06 -9.96 Q 110.93 -9.1 110.79 -8.17 L 110.79 -8.17 L 110.95 -8 Q 110.98 -8.04 111.26 -8.55 Q 111.55 -9.07 111.97 -9.79 Q 112.38 -10.5 112.87 -11.29 Q 113.35 -12.07 113.79 -12.67 L 113.79 -12.67 Q 114.21 -13.27 114.69 -13.67 Q 115.17 -14.06 115.83 -14.06 L 115.83 -14.06 Q 116.44 -14.06 116.88 -13.7 Q 117.32 -13.34 117.32 -12.69 L 117.32 -12.69 Q 117.32 -12.11 117.25 -11.6 Q 117.17 -11.09 117.06 -10.61 Q 116.95 -10.12 116.84 -9.66 Q 116.72 -9.2 116.62 -8.72 L 116.62 -8.72 Q 116.54 -8.38 116.53 -8.29 Q 116.51 -8.2 116.51 -8.17 L 116.51 -8.17 L 116.67 -8 Q 116.7 -8.04 117.01 -8.55 Q 117.32 -9.05 117.77 -9.77 Q 118.21 -10.49 118.72 -11.28 Q 119.22 -12.07 119.66 -12.67 L 119.66 -12.67 Q 120.09 -13.26 120.51 -13.66 Q 120.94 -14.06 121.55 -14.06 L 121.55 -14.06 Q 122.24 -14.06 122.72 -13.7 Q 123.19 -13.34 123.19 -12.69 L 123.19 -12.69 Q 123.19 -11.67 123.09 -10.77 Q 122.99 -9.86 122.86 -8.98 Q 122.72 -8.1 122.62 -7.2 Q 122.52 -6.3 122.52 -5.29 L 122.52 -5.29 Q 122.52 -4.5 122.72 -4 Q 122.93 -3.5 123.22 -3.5 L 123.22 -3.5 Q 123.53 -3.5 123.87 -3.63 Q 124.2 -3.76 124.56 -3.97 Q 124.91 -4.17 125.24 -4.45 Q 125.58 -4.72 125.89 -5.01 L 125.89 -5.01 Q 126.61 -5.68 127.31 -6.53 L 127.31 -6.53 L 127.56 -3.08 Q 126.91 -2.56 126.28 -2.01 Q 125.64 -1.46 124.93 -1.02 Q 124.22 -0.57 123.37 -0.29 Q 122.52 0 121.45 0 L 121.45 0 Q 120.92 0 120.56 -0.34 Q 120.21 -0.69 119.99 -1.3 Q 119.77 -1.92 119.67 -2.75 Q 119.58 -3.59 119.58 -4.57 L 119.58 -4.57 Q 119.58 -5.49 119.64 -6.53 Q 119.71 -7.56 119.82 -8.61 L 119.82 -8.61 L 119.6 -8.61 L 116.63 -1.04 Q 116.25 -0.42 115.78 -0.21 Q 115.31 0 114.7 0 L 114.7 0 Q 114.23 0 113.95 -0.26 Q 113.67 -0.51 113.52 -0.92 Q 113.36 -1.32 113.31 -1.8 Q 113.26 -2.29 113.26 -2.74 L 113.26 -2.74 Q 113.26 -2.93 113.29 -3.28 Q 113.32 -3.63 113.38 -4.09 Q 113.44 -4.54 113.51 -5.05 Q 113.58 -5.55 113.66 -6.05 L 113.66 -6.05 Q 113.82 -7.22 114.05 -8.57 L 114.05 -8.57 L 113.83 -8.57 Q 113.66 -8.35 113.43 -7.91 Q 113.2 -7.47 112.79 -6.62 Q 112.38 -5.77 111.75 -4.42 Q 111.11 -3.06 110.1 -1.03 L 110.1 -1.03 Q 109.8 -0.42 109.42 -0.21 Q 109.03 0 108.56 0 L 108.56 0 Q 107.96 0 107.59 -0.26 Q 107.23 -0.51 107.03 -0.94 Q 106.83 -1.38 106.77 -1.93 Q 106.7 -2.48 106.7 -3.06 Z M 125.45 -4.12 L 125.45 -4.12 Q 125.45 -5.21 125.76 -6.37 Q 126.06 -7.53 126.61 -8.64 Q 127.15 -9.74 127.89 -10.72 Q 128.63 -11.7 129.51 -12.44 Q 130.39 -13.17 131.36 -13.6 Q 132.33 -14.03 133.34 -14.03 L 133.34 -14.03 Q 133.68 -14.03 133.87 -13.9 Q 134.06 -13.77 134.19 -13.6 Q 134.31 -13.43 134.43 -13.27 Q 134.55 -13.11 134.72 -13.04 L 134.72 -13.04 Q 134.9 -12.96 135.08 -12.94 Q 135.26 -12.92 135.45 -12.92 L 135.45 -12.92 Q 135.62 -12.92 135.78 -12.93 Q 135.95 -12.93 136.11 -12.93 L 136.11 -12.93 Q 136.33 -12.93 136.52 -12.89 Q 136.71 -12.85 136.86 -12.7 Q 137.01 -12.55 137.09 -12.29 Q 137.17 -12.03 137.17 -11.57 L 137.17 -11.57 Q 137.17 -10.87 137.02 -10.01 Q 136.88 -9.16 136.7 -8.25 Q 136.52 -7.35 136.38 -6.45 Q 136.23 -5.55 136.23 -4.75 L 136.23 -4.75 Q 136.23 -4.06 136.35 -3.67 Q 136.48 -3.28 136.89 -3.28 L 136.89 -3.28 Q 137.2 -3.28 137.53 -3.44 Q 137.87 -3.59 138.22 -3.84 Q 138.56 -4.09 138.9 -4.4 Q 139.25 -4.72 139.56 -5.05 L 139.56 -5.05 Q 140.27 -5.84 141.01 -6.84 L 141.01 -6.84 L 141.71 -3.59 Q 141.37 -3.12 140.81 -2.49 Q 140.24 -1.86 139.54 -1.29 Q 138.84 -0.72 138.03 -0.32 Q 137.23 0.07 136.42 0.07 L 136.42 0.07 Q 135.45 0.07 134.81 -0.55 Q 134.17 -1.17 133.7 -2.36 L 133.7 -2.36 Q 133.34 -1.95 132.83 -1.52 Q 132.32 -1.1 131.71 -0.75 Q 131.1 -0.41 130.44 -0.19 Q 129.79 0.03 129.13 0.03 L 129.13 0.03 Q 128.42 0.03 127.76 -0.26 Q 127.09 -0.54 126.58 -1.08 Q 126.06 -1.61 125.76 -2.38 Q 125.45 -3.15 125.45 -4.12 Z M 129.2 -4.75 L 129.2 -4.75 Q 129.2 -4.38 129.25 -4.04 Q 129.3 -3.69 129.43 -3.42 Q 129.57 -3.15 129.79 -2.98 Q 130 -2.81 130.34 -2.81 L 130.34 -2.81 Q 130.88 -2.81 131.32 -3.28 Q 131.76 -3.75 132.08 -4.41 Q 132.41 -5.07 132.6 -5.77 Q 132.8 -6.47 132.86 -6.94 L 132.86 -6.94 L 133.75 -11.25 Q 133.15 -11.25 132.58 -10.95 Q 132.01 -10.65 131.51 -10.14 Q 131 -9.62 130.58 -8.96 Q 130.15 -8.31 129.84 -7.58 Q 129.54 -6.86 129.37 -6.12 Q 129.2 -5.39 129.2 -4.75 Z M 136.7 -15.19 L 136.7 -15.19 Q 136.7 -15.48 136.98 -15.64 Q 137.27 -15.79 137.72 -15.86 Q 138.16 -15.94 138.69 -15.94 L 138.69 -15.94 Q 138.87 -15.94 139.04 -15.95 L 139.04 -15.95 Q 139.39 -15.95 139.72 -15.94 L 139.72 -15.94 Q 140.21 -15.92 140.6 -15.92 Q 140.99 -15.91 141.14 -15.94 L 141.14 -15.94 Q 141.53 -17.92 142.14 -19.77 Q 142.75 -21.62 143.5 -23.06 Q 144.26 -24.51 145.15 -25.38 Q 146.04 -26.25 147.03 -26.25 L 147.03 -26.25 Q 147.66 -26.25 148.18 -25.9 Q 148.7 -25.55 149.06 -24.96 Q 149.43 -24.38 149.63 -23.59 Q 149.82 -22.81 149.82 -21.96 L 149.82 -21.96 Q 149.82 -21.24 149.62 -20.44 Q 149.41 -19.64 149.06 -18.82 Q 148.71 -17.99 148.23 -17.14 Q 147.76 -16.29 147.23 -15.45 L 147.23 -15.45 Q 147.36 -15.44 147.67 -15.44 Q 147.98 -15.44 148.38 -15.42 Q 148.78 -15.4 149.25 -15.37 Q 149.72 -15.35 150.16 -15.34 Q 150.6 -15.32 150.98 -15.31 Q 151.36 -15.29 151.61 -15.28 L 151.61 -15.28 Q 151.9 -15.26 152.04 -14.99 Q 152.17 -14.71 152.17 -14.28 L 152.17 -14.28 Q 152.17 -13.77 151.88 -13.45 Q 151.58 -13.13 151.23 -13.13 L 151.23 -13.13 L 145.61 -13.13 Q 145.18 -12.54 144.75 -11.98 Q 144.32 -11.41 143.95 -10.96 L 143.95 -10.96 Q 143.89 -10.05 143.85 -9.17 L 143.85 -9.17 Q 143.83 -8.79 143.82 -8.39 Q 143.8 -7.98 143.79 -7.59 Q 143.77 -7.19 143.77 -6.83 Q 143.76 -6.46 143.76 -6.15 L 143.76 -6.15 Q 143.76 -5.36 143.91 -4.82 Q 144.05 -4.28 144.33 -3.93 Q 144.61 -3.59 145.01 -3.44 Q 145.42 -3.28 145.91 -3.28 L 145.91 -3.28 Q 146.22 -3.28 146.68 -3.43 Q 147.14 -3.57 147.69 -3.83 Q 148.24 -4.09 148.85 -4.44 Q 149.46 -4.79 150.05 -5.21 Q 150.64 -5.63 151.19 -6.09 Q 151.73 -6.55 152.17 -7.03 L 152.17 -7.03 L 152.17 -3.28 Q 150.76 -2.46 149.66 -1.85 Q 148.56 -1.23 147.71 -0.82 Q 146.85 -0.41 146.18 -0.21 Q 145.52 0 144.98 0 L 144.98 0 Q 143.86 0 143.01 -0.67 Q 142.16 -1.35 141.59 -2.61 Q 141.02 -3.88 140.73 -5.68 Q 140.45 -7.49 140.45 -9.74 L 140.45 -9.74 Q 140.45 -10.62 140.52 -11.62 Q 140.6 -12.61 140.73 -13.59 L 140.73 -13.59 Q 140.29 -13.65 140.05 -13.7 Q 139.8 -13.75 139.53 -13.81 Q 139.26 -13.86 138.85 -13.92 Q 138.43 -13.97 137.64 -14.06 L 137.64 -14.06 Q 137.29 -14.11 137.09 -14.23 Q 136.9 -14.36 136.82 -14.52 Q 136.73 -14.69 136.71 -14.88 Q 136.7 -15.06 136.7 -15.19 Z M 143.94 -15.82 L 143.94 -15.82 Q 144.16 -15.79 144.38 -15.77 Q 144.59 -15.75 144.83 -15.72 L 144.83 -15.72 Q 145.27 -16.46 145.74 -17.34 Q 146.22 -18.21 146.6 -19.05 Q 146.98 -19.89 147.23 -20.63 Q 147.48 -21.36 147.48 -21.83 L 147.48 -21.83 Q 147.48 -21.99 147.46 -22.19 Q 147.44 -22.38 147.36 -22.56 Q 147.29 -22.73 147.14 -22.85 Q 146.98 -22.97 146.7 -22.97 L 146.7 -22.97 Q 146.32 -22.97 145.94 -22.29 Q 145.55 -21.62 145.19 -20.57 Q 144.83 -19.53 144.51 -18.27 Q 144.2 -17.01 143.94 -15.82 Z M 151.16 -6.11 L 151.16 -6.11 Q 151.16 -6.93 151.32 -7.84 Q 151.48 -8.76 151.81 -9.64 Q 152.14 -10.52 152.64 -11.32 Q 153.13 -12.11 153.8 -12.72 Q 154.47 -13.33 155.3 -13.69 Q 156.12 -14.05 157.13 -14.05 L 157.13 -14.05 Q 157.95 -14.05 158.66 -13.78 Q 159.36 -13.52 159.88 -13.04 Q 160.4 -12.57 160.69 -11.89 Q 160.99 -11.22 160.99 -10.39 L 160.99 -10.39 Q 160.99 -9.48 160.54 -8.57 Q 160.09 -7.66 159.3 -6.86 Q 158.51 -6.05 157.42 -5.42 Q 156.33 -4.79 155.05 -4.44 L 155.05 -4.44 Q 155.27 -4.04 155.49 -3.78 Q 155.7 -3.52 155.92 -3.37 Q 156.14 -3.22 156.38 -3.16 Q 156.62 -3.11 156.9 -3.11 L 156.9 -3.11 Q 157.78 -3.11 158.75 -3.46 Q 159.73 -3.81 160.65 -4.34 Q 161.57 -4.86 162.39 -5.49 Q 163.21 -6.11 163.78 -6.67 L 163.78 -6.67 L 165.67 -4.7 Q 164.38 -3.37 162.93 -2.34 L 162.93 -2.34 Q 162.3 -1.9 161.58 -1.48 Q 160.85 -1.05 160.06 -0.73 Q 159.26 -0.4 158.4 -0.2 Q 157.54 0 156.67 0 L 156.67 0 Q 155.29 0 154.26 -0.5 Q 153.22 -1 152.53 -1.84 Q 151.85 -2.68 151.5 -3.79 Q 151.16 -4.89 151.16 -6.11 Z M 154.72 -6.88 L 154.72 -6.88 Q 155.24 -6.88 155.87 -7.16 Q 156.49 -7.43 157.02 -7.85 Q 157.56 -8.28 157.92 -8.77 Q 158.29 -9.27 158.29 -9.74 L 158.29 -9.74 Q 158.29 -10.4 158.05 -10.83 Q 157.81 -11.25 157.46 -11.25 L 157.46 -11.25 Q 156.83 -11.25 156.38 -11.02 Q 155.93 -10.78 155.63 -10.41 Q 155.33 -10.03 155.15 -9.56 Q 154.97 -9.08 154.87 -8.6 Q 154.78 -8.12 154.75 -7.66 Q 154.72 -7.21 154.72 -6.88 Z M 168.53 -18.75 L 168.53 -18.75 Q 168.53 -18.84 168.59 -18.9 L 168.59 -18.9 Q 169.12 -20.63 169.78 -21.79 Q 170.45 -22.95 171.19 -23.65 Q 171.93 -24.35 172.7 -24.64 Q 173.47 -24.93 174.17 -24.93 L 174.17 -24.93 Q 175.08 -24.93 175.68 -24.59 Q 176.28 -24.24 176.63 -23.62 Q 176.98 -23 177.12 -22.12 Q 177.26 -21.24 177.26 -20.17 L 177.26 -20.17 Q 177.26 -19.35 177.13 -18.25 Q 177 -17.15 176.8 -15.94 Q 176.6 -14.74 176.37 -13.52 Q 176.13 -12.3 175.91 -11.25 L 175.91 -11.25 Q 176.38 -13.2 177.02 -14.99 Q 177.66 -16.79 178.41 -18.35 Q 179.17 -19.91 180.01 -21.17 Q 180.86 -22.44 181.77 -23.35 Q 182.67 -24.26 183.59 -24.76 Q 184.51 -25.25 185.42 -25.25 L 185.42 -25.25 Q 186.09 -25.25 186.67 -24.96 Q 187.24 -24.67 187.65 -24.05 Q 188.06 -23.44 188.28 -22.5 Q 188.51 -21.56 188.51 -20.27 L 188.51 -20.27 Q 188.51 -20.16 188.49 -19.91 Q 188.47 -19.66 188.43 -19.34 Q 188.39 -19.01 188.34 -18.64 Q 188.29 -18.27 188.25 -17.9 L 188.25 -17.9 Q 188.13 -17.02 188 -16 L 188 -16 L 188.31 -16.01 Q 188.88 -18.18 189.71 -19.91 Q 190.55 -21.64 191.59 -22.84 Q 192.63 -24.05 193.83 -24.7 Q 195.03 -25.34 196.32 -25.34 L 196.32 -25.34 Q 197.21 -25.34 197.91 -24.81 Q 198.6 -24.29 199.07 -23.39 Q 199.54 -22.49 199.79 -21.28 Q 200.04 -20.07 200.04 -18.72 L 200.04 -18.72 Q 200.04 -17.46 199.87 -16.14 Q 199.7 -14.81 199.45 -13.51 Q 199.2 -12.22 198.92 -10.97 Q 198.63 -9.73 198.38 -8.61 Q 198.13 -7.5 197.97 -6.56 Q 197.8 -5.61 197.8 -4.92 L 197.8 -4.92 Q 197.8 -4.06 198.11 -3.67 Q 198.43 -3.28 199.03 -3.28 L 199.03 -3.28 Q 199.37 -3.28 199.74 -3.46 Q 200.11 -3.65 200.49 -3.95 Q 200.86 -4.25 201.23 -4.64 Q 201.59 -5.02 201.93 -5.43 L 201.93 -5.43 Q 202.71 -6.37 203.47 -7.59 L 203.47 -7.59 Q 203.47 -7.57 203.6 -7.28 L 203.6 -7.28 Q 203.7 -7.03 203.94 -6.43 Q 204.17 -5.83 204.59 -4.7 L 204.59 -4.7 Q 203.86 -3.41 203.09 -2.52 Q 202.31 -1.63 201.5 -1.06 Q 200.7 -0.5 199.87 -0.25 Q 199.04 0 198.22 0 L 198.22 0 Q 197.43 0 196.68 -0.28 Q 195.92 -0.56 195.34 -1.11 Q 194.75 -1.66 194.4 -2.47 Q 194.05 -3.28 194.05 -4.34 L 194.05 -4.34 Q 194.05 -4.45 194.06 -4.58 Q 194.06 -4.72 194.08 -4.85 L 194.08 -4.85 Q 194.14 -5.83 194.33 -6.94 Q 194.52 -8.04 194.76 -9.21 Q 195 -10.39 195.26 -11.6 Q 195.53 -12.82 195.75 -14.03 Q 195.97 -15.23 196.11 -16.41 Q 196.26 -17.59 196.26 -18.68 L 196.26 -18.68 Q 196.26 -19.34 196.22 -19.87 Q 196.17 -20.41 196.04 -20.78 Q 195.91 -21.15 195.66 -21.36 Q 195.41 -21.56 195 -21.56 L 195 -21.56 Q 194.22 -21.56 193.54 -21.02 Q 192.85 -20.48 192.23 -19.53 Q 191.62 -18.57 191.08 -17.27 Q 190.55 -15.97 190.07 -14.45 Q 189.59 -12.93 189.18 -11.27 Q 188.77 -9.61 188.42 -7.92 Q 188.07 -6.24 187.76 -4.6 Q 187.46 -2.96 187.19 -1.49 L 187.19 -1.49 Q 187.08 -1.08 186.83 -0.8 Q 186.59 -0.51 186.28 -0.34 Q 185.96 -0.16 185.61 -0.08 Q 185.26 0 184.91 0 L 184.91 0 Q 184.6 0 184.3 -0.12 Q 184 -0.23 183.77 -0.49 Q 183.54 -0.75 183.41 -1.14 Q 183.27 -1.54 183.27 -2.11 L 183.27 -2.11 Q 183.27 -2.49 183.44 -3.42 Q 183.62 -4.35 183.89 -5.65 Q 184.16 -6.94 184.48 -8.49 Q 184.79 -10.03 185.06 -11.64 Q 185.33 -13.24 185.51 -14.81 Q 185.68 -16.38 185.68 -17.7 L 185.68 -17.7 Q 185.68 -18.6 185.64 -19.32 Q 185.6 -20.04 185.43 -20.54 Q 185.27 -21.04 184.97 -21.3 Q 184.67 -21.56 184.17 -21.56 L 184.17 -21.56 Q 183.76 -21.56 183.24 -21.01 Q 182.71 -20.45 182.1 -19.47 Q 181.49 -18.49 180.85 -17.16 Q 180.21 -15.83 179.57 -14.3 Q 178.93 -12.76 178.34 -11.08 Q 177.74 -9.4 177.25 -7.73 Q 176.75 -6.05 176.37 -4.45 Q 175.99 -2.84 175.8 -1.44 L 175.8 -1.44 Q 175.74 -1 175.52 -0.72 Q 175.3 -0.44 174.99 -0.28 Q 174.68 -0.12 174.33 -0.05 Q 173.98 0.01 173.66 0.01 L 173.66 0.01 Q 173.28 0.01 172.92 -0.07 Q 172.56 -0.15 172.28 -0.31 Q 172 -0.48 171.84 -0.73 Q 171.68 -0.97 171.68 -1.27 L 171.68 -1.27 Q 171.68 -1.88 171.74 -2.38 Q 171.8 -2.89 171.91 -3.4 L 171.91 -3.4 Q 172.32 -5.11 172.63 -6.58 Q 172.94 -8.06 173.16 -9.38 Q 173.38 -10.69 173.54 -11.93 Q 173.7 -13.17 173.83 -14.42 Q 173.95 -15.67 174.05 -17.01 Q 174.16 -18.34 174.27 -19.86 L 174.27 -19.86 Q 174.27 -20 174.27 -20.2 Q 174.27 -20.41 174.23 -20.59 Q 174.18 -20.77 174.07 -20.9 Q 173.96 -21.04 173.75 -21.04 L 173.75 -21.04 Q 173.39 -21.04 172.89 -20.79 Q 172.38 -20.55 171.83 -20.14 Q 171.27 -19.73 170.71 -19.18 Q 170.16 -18.63 169.69 -18 L 169.69 -18 Q 169.6 -17.78 169.41 -17.69 Q 169.22 -17.59 168.98 -17.59 L 168.98 -17.59 Q 168.91 -17.59 168.83 -17.72 Q 168.75 -17.84 168.68 -18.02 Q 168.62 -18.19 168.57 -18.39 Q 168.53 -18.59 168.53 -18.75 Z M 202.15 -6.4 L 202.15 -6.4 Q 202.15 -8.01 202.63 -9.41 Q 203.12 -10.81 204.02 -11.84 Q 204.92 -12.88 206.22 -13.47 Q 207.52 -14.06 209.15 -14.06 L 209.15 -14.06 Q 210.54 -14.06 211.76 -13.63 Q 212.97 -13.2 214.04 -12.47 Q 215.1 -11.75 216.01 -10.81 Q 216.93 -9.87 217.72 -8.88 L 217.72 -8.88 L 217.44 -6.81 Q 217.05 -7.34 216.37 -7.95 Q 215.7 -8.57 214.94 -9.16 Q 214.19 -9.74 213.46 -10.26 Q 212.72 -10.78 212.2 -11.13 L 212.2 -11.13 L 212.08 -10.97 Q 212.5 -10.12 212.72 -9.18 Q 212.93 -8.23 212.93 -7.37 L 212.93 -7.37 Q 212.93 -6.5 212.74 -5.63 Q 212.55 -4.75 212.19 -3.93 Q 211.83 -3.11 211.31 -2.39 Q 210.79 -1.67 210.12 -1.14 Q 209.46 -0.62 208.67 -0.31 Q 207.88 0 206.98 0 L 206.98 0 Q 205.69 0 204.78 -0.56 Q 203.86 -1.13 203.28 -2.04 Q 202.69 -2.94 202.42 -4.09 Q 202.15 -5.23 202.15 -6.4 Z M 205.43 -5.8 L 205.43 -5.8 Q 205.43 -5.19 205.55 -4.64 Q 205.66 -4.1 205.91 -3.7 Q 206.16 -3.3 206.57 -3.05 Q 206.98 -2.81 207.55 -2.81 L 207.55 -2.81 Q 208.05 -2.81 208.52 -3.32 Q 208.99 -3.82 209.34 -4.59 Q 209.69 -5.36 209.9 -6.29 Q 210.12 -7.22 210.12 -8.07 L 210.12 -8.07 Q 210.12 -8.75 210.01 -9.32 Q 209.91 -9.9 209.71 -10.33 Q 209.5 -10.75 209.18 -11 Q 208.86 -11.25 208.4 -11.25 L 208.4 -11.25 Q 207.8 -11.25 207.26 -10.74 Q 206.72 -10.22 206.31 -9.43 Q 205.9 -8.63 205.66 -7.66 Q 205.43 -6.69 205.43 -5.8 Z M 215.64 -10.49 L 215.64 -10.49 Q 215.64 -12 215.78 -12.84 Q 215.92 -13.68 216.39 -13.75 L 216.39 -13.75 L 218.14 -14.03 Q 218.22 -14.05 218.28 -14.06 Q 218.35 -14.06 218.42 -14.06 L 218.42 -14.06 Q 218.92 -14.06 219.19 -13.77 Q 219.46 -13.48 219.48 -13.1 L 219.48 -13.1 L 218.91 -3.82 L 219.11 -3.84 L 222.96 -13.02 Q 223.01 -13.23 223.15 -13.42 Q 223.3 -13.61 223.54 -13.75 Q 223.77 -13.89 224.06 -13.97 Q 224.34 -14.06 224.66 -14.06 L 224.66 -14.06 Q 225.51 -14.06 226.03 -13.72 Q 226.54 -13.37 226.54 -12.83 L 226.54 -12.83 Q 226.54 -12.42 226.43 -12.06 Q 226.32 -11.69 226.12 -11.26 Q 225.92 -10.83 225.65 -10.3 Q 225.38 -9.77 225.06 -9.05 L 225.06 -9.05 Q 224.96 -8.79 224.88 -8.51 L 224.88 -8.51 Q 224.81 -8.26 224.76 -7.95 Q 224.71 -7.63 224.71 -7.29 L 224.71 -7.29 Q 224.71 -6.94 224.79 -6.61 Q 224.88 -6.27 225.1 -6 Q 225.32 -5.73 225.7 -5.57 Q 226.08 -5.41 226.68 -5.41 L 226.68 -5.41 Q 227.12 -5.41 227.7 -5.63 Q 228.28 -5.86 228.79 -6.15 L 228.79 -6.15 Q 229.39 -6.49 230.02 -6.91 L 230.02 -6.91 L 230.02 -3.47 Q 229.06 -2.86 228.02 -2.49 Q 226.99 -2.12 226.05 -2.12 L 226.05 -2.12 Q 225.26 -2.12 224.64 -2.37 Q 224.02 -2.61 223.59 -3.02 Q 223.15 -3.43 222.91 -3.94 Q 222.67 -4.45 222.66 -5.01 L 222.66 -5.01 Q 222.23 -4.13 221.69 -3.21 Q 221.15 -2.29 220.57 -1.54 Q 219.99 -0.79 219.41 -0.31 Q 218.83 0.16 218.32 0.16 L 218.32 0.16 Q 217.47 0.16 217 -0.27 Q 216.53 -0.7 216.31 -1.36 Q 216.08 -2.02 216.01 -2.8 Q 215.95 -3.57 215.9 -4.28 L 215.9 -4.28 L 215.87 -4.75 Q 215.83 -5.84 215.79 -6.66 Q 215.74 -7.47 215.71 -8.13 Q 215.67 -8.79 215.65 -9.35 Q 215.64 -9.9 215.64 -10.49 Z M 228.69 -2.94 L 228.69 -2.94 Q 228.69 -3.87 228.9 -5.09 Q 229.12 -6.31 229.42 -7.62 Q 229.73 -8.94 230.08 -10.24 Q 230.42 -11.54 230.68 -12.64 L 230.68 -12.64 Q 230.79 -13.02 231.09 -13.29 Q 231.4 -13.56 231.79 -13.73 Q 232.18 -13.9 232.6 -13.98 Q 233.01 -14.06 233.35 -14.06 L 233.35 -14.06 Q 233.96 -14.06 234.18 -13.84 Q 234.4 -13.61 234.4 -13.23 L 234.4 -13.23 Q 234.4 -12.91 234.26 -12.3 Q 234.11 -11.69 233.89 -10.92 Q 233.67 -10.15 233.42 -9.27 Q 233.17 -8.38 232.95 -7.49 Q 232.73 -6.61 232.59 -5.76 Q 232.44 -4.92 232.44 -4.25 L 232.44 -4.25 Q 232.44 -3.59 232.59 -3.2 Q 232.73 -2.81 233.19 -2.81 L 233.19 -2.81 Q 233.72 -2.81 234.36 -3.18 Q 235 -3.54 235.66 -4.06 Q 236.32 -4.58 236.95 -5.14 Q 237.58 -5.7 238.07 -6.09 L 238.07 -6.09 L 238.07 -3.12 Q 237.54 -2.64 236.76 -2.09 Q 235.97 -1.54 235.06 -1.08 Q 234.16 -0.62 233.21 -0.31 Q 232.27 0 231.42 0 L 231.42 0 Q 230.65 0 230.13 -0.21 Q 229.61 -0.42 229.29 -0.81 Q 228.97 -1.19 228.83 -1.74 Q 228.69 -2.29 228.69 -2.94 Z M 231.52 -18.18 L 231.52 -18.18 Q 231.52 -18.52 231.67 -18.94 Q 231.81 -19.37 232.14 -19.74 Q 232.47 -20.11 233.02 -20.37 Q 233.57 -20.63 234.39 -20.63 L 234.39 -20.63 Q 234.9 -20.63 235.36 -20.51 Q 235.81 -20.39 236.15 -20.15 Q 236.48 -19.91 236.68 -19.51 Q 236.88 -19.12 236.88 -18.57 L 236.88 -18.57 Q 236.88 -18.08 236.72 -17.61 Q 236.56 -17.14 236.21 -16.77 Q 235.85 -16.41 235.32 -16.18 Q 234.79 -15.95 234.04 -15.95 L 234.04 -15.95 Q 232.75 -15.95 232.13 -16.56 Q 231.52 -17.17 231.52 -18.18 Z M 236.47 -6.11 L 236.47 -6.11 Q 236.47 -6.93 236.63 -7.84 Q 236.79 -8.76 237.12 -9.64 Q 237.45 -10.52 237.95 -11.32 Q 238.45 -12.11 239.11 -12.72 Q 239.78 -13.33 240.61 -13.69 Q 241.44 -14.05 242.45 -14.05 L 242.45 -14.05 Q 243.27 -14.05 243.97 -13.78 Q 244.67 -13.52 245.19 -13.04 Q 245.71 -12.57 246.01 -11.89 Q 246.3 -11.22 246.3 -10.39 L 246.3 -10.39 Q 246.3 -9.48 245.85 -8.57 Q 245.41 -7.66 244.61 -6.86 Q 243.82 -6.05 242.73 -5.42 Q 241.64 -4.79 240.37 -4.44 L 240.37 -4.44 Q 240.59 -4.04 240.8 -3.78 Q 241.01 -3.52 241.23 -3.37 Q 241.45 -3.22 241.69 -3.16 Q 241.93 -3.11 242.21 -3.11 L 242.21 -3.11 Q 243.09 -3.11 244.06 -3.46 Q 245.04 -3.81 245.96 -4.34 Q 246.88 -4.86 247.71 -5.49 Q 248.53 -6.11 249.1 -6.67 L 249.1 -6.67 L 250.99 -4.7 Q 249.7 -3.37 248.25 -2.34 L 248.25 -2.34 Q 247.62 -1.9 246.89 -1.48 Q 246.17 -1.05 245.37 -0.73 Q 244.57 -0.4 243.71 -0.2 Q 242.86 0 241.98 0 L 241.98 0 Q 240.6 0 239.57 -0.5 Q 238.54 -1 237.85 -1.84 Q 237.16 -2.68 236.81 -3.79 Q 236.47 -4.89 236.47 -6.11 Z M 240.03 -6.88 L 240.03 -6.88 Q 240.56 -6.88 241.18 -7.16 Q 241.8 -7.43 242.34 -7.85 Q 242.87 -8.28 243.24 -8.77 Q 243.6 -9.27 243.6 -9.74 L 243.6 -9.74 Q 243.6 -10.4 243.36 -10.83 Q 243.12 -11.25 242.77 -11.25 L 242.77 -11.25 Q 242.14 -11.25 241.69 -11.02 Q 241.25 -10.78 240.94 -10.41 Q 240.64 -10.03 240.46 -9.56 Q 240.28 -9.08 240.18 -8.6 Q 240.09 -8.12 240.06 -7.66 Q 240.03 -7.21 240.03 -6.88 Z M 252.86 -17.5 L 252.86 -17.5 Q 252.86 -18.94 253.23 -20.08 Q 253.61 -21.23 254.27 -22.11 Q 254.94 -23 255.86 -23.62 Q 256.77 -24.24 257.86 -24.65 Q 258.96 -25.05 260.19 -25.24 Q 261.42 -25.43 262.71 -25.43 L 262.71 -25.43 Q 265.09 -25.43 266.95 -25.03 Q 268.81 -24.64 270.21 -23.94 Q 271.61 -23.23 272.58 -22.26 Q 273.54 -21.28 274.15 -20.13 Q 274.75 -18.98 275.02 -17.7 Q 275.29 -16.41 275.29 -15.06 L 275.29 -15.06 Q 275.29 -13.21 274.88 -11.32 Q 274.47 -9.42 273.69 -7.65 Q 272.92 -5.87 271.78 -4.32 Q 270.64 -2.77 269.18 -1.61 Q 267.71 -0.45 265.96 0.21 Q 264.2 0.88 262.16 0.88 L 262.16 0.88 Q 261.47 0.88 260.76 0.78 Q 260.04 0.67 259.37 0.5 Q 258.69 0.32 258.09 0.1 Q 257.49 -0.12 257.04 -0.35 L 257.04 -0.35 Q 256.85 -0.41 256.74 -0.49 Q 256.63 -0.57 256.57 -0.68 Q 256.51 -0.79 256.49 -0.95 Q 256.48 -1.11 256.48 -1.36 L 256.48 -1.36 Q 256.48 -3.79 256.6 -6.34 Q 256.73 -8.89 257.11 -11.32 Q 257.49 -13.75 258.21 -15.96 Q 258.93 -18.16 260.11 -19.91 L 260.11 -19.91 Q 261.15 -20.63 262 -20.63 L 262 -20.63 Q 263.07 -20.63 263.79 -19.42 L 263.79 -19.42 Q 263.12 -18.52 262.66 -17.4 Q 262.21 -16.29 261.9 -15.07 Q 261.59 -13.84 261.39 -12.57 Q 261.18 -11.29 261.01 -10.08 L 261.01 -10.08 Q 260.8 -8.73 260.66 -7.77 Q 260.52 -6.81 260.44 -6.09 Q 260.36 -5.38 260.32 -4.83 Q 260.29 -4.29 260.29 -3.78 L 260.29 -3.78 Q 260.29 -3.24 260.32 -2.87 Q 260.36 -2.5 260.5 -2.29 Q 260.64 -2.07 260.93 -1.97 Q 261.21 -1.88 261.69 -1.88 L 261.69 -1.88 Q 263.16 -1.88 264.48 -2.45 Q 265.8 -3.03 266.91 -4.01 Q 268.02 -4.98 268.91 -6.27 Q 269.79 -7.56 270.42 -8.99 Q 271.04 -10.43 271.38 -11.92 Q 271.71 -13.4 271.71 -14.78 L 271.71 -14.78 Q 271.71 -16.48 271.16 -17.82 Q 270.6 -19.16 269.6 -20.09 Q 268.59 -21.02 267.19 -21.51 Q 265.78 -22 264.1 -22 L 264.1 -22 Q 262.87 -22 261.66 -21.86 Q 260.45 -21.71 259.42 -21.4 Q 258.38 -21.09 257.6 -20.62 Q 256.82 -20.14 256.42 -19.48 L 256.42 -19.48 Q 255.35 -17.83 254.66 -16.93 Q 253.97 -16.03 253.51 -16.03 L 253.51 -16.03 Q 252.86 -16.03 252.86 -17.5 Z M 270.62 -17.5 L 270.62 -17.5 Q 270.62 -18.94 271.03 -20.08 Q 271.44 -21.23 272.18 -22.11 Q 272.92 -23 273.93 -23.62 Q 274.95 -24.24 276.16 -24.65 Q 277.37 -25.05 278.72 -25.24 Q 280.06 -25.43 281.48 -25.43 L 281.48 -25.43 Q 283.14 -25.43 284.81 -25.19 Q 286.48 -24.95 288.02 -24.51 Q 289.56 -24.07 290.89 -23.44 Q 292.22 -22.82 293.21 -22.07 Q 294.2 -21.31 294.76 -20.43 Q 295.33 -19.56 295.33 -18.6 L 295.33 -18.6 Q 295.33 -17.48 294.84 -16.38 Q 294.35 -15.28 293.3 -14.39 Q 292.25 -13.51 290.62 -12.93 Q 288.98 -12.36 286.7 -12.32 L 286.7 -12.32 Q 288.15 -12.32 289.23 -11.86 Q 290.32 -11.4 291.05 -10.61 Q 291.78 -9.83 292.15 -8.8 Q 292.51 -7.78 292.51 -6.65 L 292.51 -6.65 Q 292.51 -5.73 292.27 -4.78 Q 292.02 -3.82 291.52 -2.94 Q 291.02 -2.07 290.27 -1.3 Q 289.53 -0.53 288.52 0.04 Q 287.52 0.62 286.26 0.94 Q 285 1.27 283.49 1.27 L 283.49 1.27 Q 282.54 1.27 281.48 1.15 Q 280.43 1.03 279.35 0.81 Q 278.28 0.6 277.24 0.31 Q 276.2 0.01 275.27 -0.32 L 275.27 -0.32 Q 274.86 -0.42 274.55 -0.63 Q 274.23 -0.83 274.23 -1.36 L 274.23 -1.36 Q 274.23 -3.79 274.36 -6.34 Q 274.48 -8.89 274.86 -11.32 Q 275.24 -13.75 275.96 -15.96 Q 276.68 -18.16 277.87 -19.91 L 277.87 -19.91 Q 278.91 -20.63 279.76 -20.63 L 279.76 -20.63 Q 280.83 -20.63 281.54 -19.42 L 281.54 -19.42 Q 280.87 -18.52 280.39 -17.4 Q 279.92 -16.29 279.59 -15.07 Q 279.27 -13.84 279.07 -12.57 Q 278.88 -11.29 278.76 -10.08 L 278.76 -10.08 Q 278.69 -9.39 278.64 -8.61 Q 278.58 -7.84 278.54 -7.03 Q 278.5 -6.23 278.47 -5.43 Q 278.45 -4.63 278.45 -3.9 L 278.45 -3.9 Q 278.45 -3.78 278.45 -3.57 Q 278.45 -3.37 278.49 -3.15 Q 278.53 -2.93 278.58 -2.75 Q 278.64 -2.56 278.76 -2.48 L 278.76 -2.48 Q 279.65 -2.18 280.68 -1.98 Q 281.7 -1.77 282.73 -1.77 L 282.73 -1.77 Q 283.97 -1.77 285.15 -2.07 Q 286.32 -2.37 287.23 -3.02 Q 288.13 -3.68 288.68 -4.69 Q 289.23 -5.71 289.23 -7.16 L 289.23 -7.16 Q 289.23 -8.01 288.91 -8.58 Q 288.59 -9.14 288.07 -9.52 Q 287.55 -9.9 286.88 -10.13 Q 286.22 -10.36 285.52 -10.54 Q 284.82 -10.72 284.16 -10.9 Q 283.49 -11.07 282.97 -11.35 Q 282.45 -11.62 282.13 -12.02 Q 281.81 -12.42 281.81 -13.07 L 281.81 -13.07 Q 281.81 -13.37 281.84 -13.6 Q 281.88 -13.83 282.02 -13.97 Q 282.16 -14.12 282.43 -14.19 Q 282.7 -14.27 283.17 -14.27 L 283.17 -14.27 Q 283.8 -14.27 284.32 -14.22 Q 284.84 -14.17 285.44 -14.17 L 285.44 -14.17 Q 286.85 -14.17 287.98 -14.51 Q 289.12 -14.85 289.91 -15.44 Q 290.71 -16.03 291.15 -16.81 Q 291.58 -17.59 291.58 -18.49 L 291.58 -18.49 Q 291.58 -19.07 291.24 -19.56 Q 290.9 -20.05 290.3 -20.44 Q 289.69 -20.83 288.87 -21.12 Q 288.05 -21.42 287.08 -21.61 Q 286.11 -21.81 285.04 -21.91 Q 283.97 -22 282.88 -22 L 282.88 -22 Q 281.48 -22 280.13 -21.85 Q 278.77 -21.69 277.61 -21.38 Q 276.45 -21.06 275.54 -20.59 Q 274.64 -20.11 274.17 -19.48 L 274.17 -19.48 Q 273.22 -17.75 272.48 -16.89 Q 271.73 -16.03 271.26 -16.03 L 271.26 -16.03 Q 270.62 -16.03 270.62 -17.5 Z" stroke-linecap="round" />
</g>
</svg>